<svg width="300" height="300" viewBox="0 0 300 300" version="1.1" xmlns="http://www.w3.org/2000/svg" xmlns:xlink="http://www.w3.org/1999/xlink">
<title>logo-black-svg</title>
<desc>Created using Figma</desc>
<g id="Canvas" transform="translate(3668 -28426)">
<clipPath id="clip-0" clip-rule="evenodd">
<path d="M -3668 28426L -3368 28426L -3368 28726L -3668 28726L -3668 28426Z" fill="#FFFFFF"/>
</clipPath>
<g id="logo-black-svg" clip-path="url(#clip-0)">
<g id="Group">
<g id="Subtract">
<use xlink:href="#path0_fill" transform="translate(-3636 28477)"/>
</g>
</g>
</g>
</g>
<defs>
<path id="path0_fill" fill-rule="evenodd" d="M 68.3799 147.16C 51.48 147.16 39 134.939 39 117C 39 99.0605 51.48 86.8398 68.3799 86.8398C 70.0452 86.8398 71.6663 86.9551 73.2344 87.1816C 76.7317 73.5586 84.1416 61.6719 94.0874 52.998C 86.2866 50 77.7703 48.3594 68.8999 48.3594C 29.3801 48.3594 0 78.2598 0 117C 0 155.74 29.3801 185.641 68.8999 185.641C 85.9995 185.641 101.577 179.668 113.353 169.609C 124.212 179.67 138.237 185.641 153.456 185.641C 170.876 185.641 183.616 179.66 192.196 169.779L 192.196 182L 231.196 182L 231.196 0L 192.196 0L 192.196 64.2207C 183.616 54.3398 170.876 48.3594 153.456 48.3594C 138.245 48.3594 124.228 54.3223 113.37 64.373C 103.521 73.4922 96.2732 85.9727 93.0962 100.418C 91.9333 105.705 91.3159 111.256 91.3159 117C 91.3159 122.758 91.9363 128.32 93.1042 133.617C 88.709 142.105 79.387 147.16 68.3799 147.16ZM 130.316 117C 130.316 136.5 143.316 148.721 161.256 148.721C 179.196 148.721 192.196 136.5 192.196 117C 192.196 97.5 179.196 85.2793 161.256 85.2793C 143.316 85.2793 130.316 97.5 130.316 117Z"/>
</defs>
</svg>
