<svg width="487" height="90" viewBox="0 0 487 90" version="1.1" xmlns="http://www.w3.org/2000/svg" xmlns:xlink="http://www.w3.org/1999/xlink">
<title>Group</title>
<desc>Created using Figma</desc>
<g id="Canvas" transform="translate(0 117)">
<g id="Group">
<g id="Group">
<g id="Rectangle">
<use xlink:href="#path0_fill" transform="translate(80 -90)"/>
</g>
<g id="Rectangle">
<use xlink:href="#path1_fill" transform="translate(60 -99)"/>
</g>
<g id="Rectangle">
<use xlink:href="#path2_fill" transform="translate(40 -117)"/>
</g>
<g id="Rectangle">
<use xlink:href="#path3_fill" transform="translate(20 -105.75)"/>
</g>
<g id="Rectangle">
<use xlink:href="#path0_fill" transform="translate(0 -90.0001)"/>
</g>
</g>
<g id="Chorale">
<use xlink:href="#path4_fill" transform="translate(122 -131)"/>
</g>
</g>
</g>
<defs>
<path id="path0_fill" d="M 0 0L 10 0L 10 36L 0 36L 0 0Z"/>
<path id="path1_fill" d="M 0 0L 10 0L 10 54L 0 54L 0 0Z"/>
<path id="path2_fill" d="M 0 0L 10 0L 10 90L 0 90L 0 0Z"/>
<path id="path3_fill" d="M 0 0L 10 0L 10 67.5L 0 67.5L 0 0Z"/>
<path id="path4_fill" d="M 53.472 52.008C 51.488 49.256 49.088 47.048 46.272 45.384C 43.52 43.656 40.832 42.792 38.208 42.792C 35.584 42.792 33.184 43.496 31.008 44.904C 28.896 46.248 27.232 48.136 26.016 50.568C 24.864 53 24.288 55.752 24.288 58.824C 24.288 61.896 24.864 64.68 26.016 67.176C 27.232 69.608 28.896 71.528 31.008 72.936C 33.184 74.344 35.584 75.048 38.208 75.048C 40.64 75.048 43.232 74.344 45.984 72.936C 48.8 71.464 51.296 69.544 53.472 67.176L 66.336 80.904C 62.56 85.064 58.016 88.392 52.704 90.888C 47.456 93.32 42.24 94.536 37.056 94.536C 30.272 94.536 24.16 93.032 18.72 90.024C 13.344 86.952 9.12 82.728 6.048 77.352C 2.976 71.912 1.44 65.832 1.44 59.112C 1.44 52.456 3.008 46.504 6.144 41.256C 9.28 35.944 13.6 31.784 19.104 28.776C 24.672 25.768 30.944 24.264 37.92 24.264C 43.04 24.264 48.192 25.416 53.376 27.72C 58.56 29.96 62.88 32.968 66.336 36.744L 53.472 52.008ZM 105.55 39.528C 109.198 39.528 112.43 40.36 115.246 42.024C 118.126 43.688 120.366 46.024 121.966 49.032C 123.566 52.04 124.366 55.528 124.366 59.496L 124.366 93L 102.766 93L 102.766 65.736C 102.766 63.56 102.19 61.832 101.038 60.552C 99.8857 59.208 98.3817 58.536 96.5257 58.536C 94.4137 58.536 92.7177 59.304 91.4377 60.84C 90.2217 62.376 89.6137 64.424 89.6137 66.984L 89.6137 93L 68.0137 93L 68.0137 21.768L 89.6137 21.768L 89.6137 47.976C 91.4057 45.224 93.6457 43.144 96.3337 41.736C 99.0857 40.264 102.158 39.528 105.55 39.528ZM 155.424 39.72C 161.376 39.72 166.592 40.84 171.072 43.08C 175.552 45.256 179.008 48.392 181.44 52.488C 183.872 56.52 185.088 61.256 185.088 66.696C 185.088 72.136 183.872 76.904 181.44 81C 179.008 85.032 175.552 88.168 171.072 90.408C 166.592 92.648 161.376 93.768 155.424 93.768C 149.472 93.768 144.256 92.648 139.776 90.408C 135.296 88.168 131.84 85.032 129.408 81C 126.976 76.904 125.76 72.136 125.76 66.696C 125.76 61.256 126.976 56.52 129.408 52.488C 131.84 48.392 135.296 45.256 139.776 43.08C 144.256 40.84 149.472 39.72 155.424 39.72ZM 155.424 56.808C 153.056 56.808 151.136 57.736 149.664 59.592C 148.256 61.448 147.552 63.912 147.552 66.984C 147.552 70.056 148.256 72.52 149.664 74.376C 151.136 76.232 153.056 77.16 155.424 77.16C 157.792 77.16 159.68 76.232 161.088 74.376C 162.56 72.52 163.296 70.056 163.296 66.984C 163.296 63.912 162.56 61.448 161.088 59.592C 159.68 57.736 157.792 56.808 155.424 56.808ZM 209.61 48.168C 211.466 45.416 213.738 43.304 216.426 41.832C 219.178 40.296 222.25 39.528 225.642 39.528L 225.642 59.016C 224.234 58.824 222.858 58.728 221.514 58.728C 217.802 58.728 214.89 59.56 212.778 61.224C 210.666 62.824 209.61 65.064 209.61 67.944L 209.61 93L 188.01 93L 188.01 40.488L 209.61 40.488L 209.61 48.168ZM 252.643 39.528C 260.259 39.528 266.179 41.256 270.403 44.712C 274.691 48.104 276.835 52.872 276.835 59.016L 276.835 93L 255.619 93L 255.619 87.336C 252.419 91.752 247.491 93.96 240.835 93.96C 235.331 93.96 231.011 92.488 227.875 89.544C 224.803 86.536 223.267 82.504 223.267 77.448C 223.267 72.264 224.995 68.328 228.451 65.64C 231.907 62.952 236.963 61.544 243.619 61.416L 255.619 61.416C 255.555 59.56 254.819 58.152 253.411 57.192C 252.067 56.168 250.083 55.656 247.459 55.656C 245.411 55.656 242.947 55.944 240.067 56.52C 237.251 57.096 234.403 57.928 231.523 59.016L 226.723 44.616C 231.203 42.952 235.651 41.704 240.067 40.872C 244.547 39.976 248.739 39.528 252.643 39.528ZM 248.323 80.232C 249.731 80.232 251.075 79.88 252.355 79.176C 253.699 78.472 254.787 77.48 255.619 76.2L 255.619 71.4L 248.131 71.4C 245.059 71.4 243.523 72.808 243.523 75.624C 243.523 77.096 243.939 78.248 244.771 79.08C 245.603 79.848 246.787 80.232 248.323 80.232ZM 282.622 21.768L 304.222 21.768L 304.222 93L 282.622 93L 282.622 21.768ZM 337.22 39.816C 342.724 39.816 347.524 40.84 351.62 42.888C 355.716 44.872 358.852 47.72 361.028 51.432C 363.268 55.08 364.388 59.304 364.388 64.104C 364.388 66.472 364.1 68.968 363.524 71.592L 328.772 71.592C 329.476 75.816 332.228 77.928 337.028 77.928C 340.676 77.928 344.196 76.616 347.588 73.992L 358.724 84.936C 352.516 90.76 345.028 93.672 336.26 93.672C 330.436 93.672 325.348 92.712 320.996 90.792C 316.708 88.872 313.38 86.12 311.012 82.536C 308.708 78.952 307.556 74.792 307.556 70.056C 307.556 64.296 308.804 59.112 311.3 54.504C 313.86 49.896 317.38 46.312 321.86 43.752C 326.404 41.128 331.524 39.816 337.22 39.816ZM 343.46 61.608C 343.78 60.776 343.94 60.04 343.94 59.4C 343.94 57.992 343.46 56.808 342.5 55.848C 341.54 54.888 340.292 54.408 338.756 54.408C 337.092 54.408 335.492 55.08 333.956 56.424C 332.484 57.704 331.268 59.432 330.308 61.608L 343.46 61.608Z"/>
</defs>
</svg>
